<?xml version="1.0" encoding="utf-8"?>
<!-- Generator: Adobe Illustrator 22.0.0, SVG Export Plug-In . SVG Version: 6.00 Build 0)  -->
<svg version="1.1" id="Layer_1" xmlns="http://www.w3.org/2000/svg" xmlns:xlink="http://www.w3.org/1999/xlink" x="0px" y="0px"
	 viewBox="0 0 24.4 29" style="enable-background:new 0 0 24.4 29;" xml:space="preserve">
<path d="M0.1,18.1C0,18,0,17.8,0.1,17.7c0.2-0.2,0.5-0.3,0.8-0.3c0.3,0.1,0.5,0.1,0.6,0.2c0.4,0.2,0.8,0.5,1.3,1.1
	c0.5,0.6,0.9,1,1.1,1.2c1.3,1.1,2.7,1.2,4.1,0.3c0.1-0.4,0.3-0.7,0.5-1c0.3-0.3,0.5-0.5,0.7-0.6c0.2-0.1,0.6-0.3,1.2-0.5
	c-1.8-0.2-3.3-0.5-4.5-1c-1.1-0.5-2-1.1-2.7-1.8c-0.9-1-1.4-2.3-1.6-3.9C1.4,9.8,1.6,8.4,2,7c0.3-0.8,0.8-1.6,1.4-2.3
	C3,3.4,3.1,1.8,3.7,0c1.8,0.1,3.4,0.7,4.9,1.8c2.8-0.7,5.7-0.8,8.7-0.1c0.4-0.3,1-0.6,1.8-1c0.8-0.4,1.8-0.7,3.1-0.7
	c0.2,0.6,0.4,1.3,0.5,2.2c0.1,0.8,0,1.6-0.1,2.3c1.3,1.3,2,3.1,2,5.4c0,1.8-0.3,3.3-0.9,4.4c-0.6,1.2-1.7,2.1-3.3,2.9
	c-1.1,0.5-2.5,0.8-4.2,0.9c0.8,0.4,1.4,0.8,1.7,1.2c0.4,0.4,0.6,1.1,0.7,2V24l0.1,2.6c0.2,0.3,0.4,0.5,0.6,0.7
	c0.2,0.2,0.4,0.3,0.6,0.4c0.2,0.1,0.2,0.2,0.2,0.4c-0.1,0.2-0.3,0.3-0.7,0.3c-0.9,0-1.7-0.3-2.3-1c-0.2-0.3-0.3-0.6-0.3-1v-4
	c0-0.4-0.1-0.8-0.3-1c-0.2-0.2-0.4-0.3-0.7-0.4v5.3c0,0.9,0.1,1.6,0.3,1.8c0.2,0.3,0.4,0.6,0.4,0.8c0.1,0.1,0,0.1-0.1,0.1
	c-0.1,0-0.4,0-0.7-0.1c-0.7-0.2-1.2-0.5-1.5-1.1c-0.3-0.6-0.4-1.2-0.4-1.9v-5.2h-1.1v5.2c0,0.7-0.1,1.3-0.4,1.9
	C11.8,28.6,11.1,29,10,29c-0.2-0.1-0.3-0.1-0.3-0.2c0.1-0.1,0.2-0.3,0.5-0.8c0.1-0.1,0.1-0.3,0.2-0.7c0.1-0.3,0.1-0.7,0.1-1.2v-5.3
	c-0.2,0.1-0.4,0.2-0.6,0.4c-0.2,0.2-0.3,0.5-0.3,1v4c0,0.4-0.1,0.7-0.3,1c-0.5,0.7-1.3,1-2.3,1c-0.4,0-0.6-0.1-0.7-0.3
	c-0.1-0.1,0-0.2,0-0.3c0.1-0.1,0.2-0.2,0.4-0.3c0.2-0.1,0.3-0.2,0.3-0.3c0.2-0.2,0.4-0.4,0.5-0.7c0.2-0.2,0.2-0.8,0.1-1.8
	c-0.1-0.9-0.1-1.6,0-1.8c-1.5,0.5-2.9,0.3-4.4-0.8c-0.4-0.4-0.9-1.1-1.3-1.9C1.8,19.6,1.1,18.9,0.1,18.1L0.1,18.1z"/>
</svg>
